<svg xmlns="http://www.w3.org/2000/svg" width="1200" height="630" viewBox="0 0 1200 630" role="img" aria-labelledby="title desc">
  <title id="title">Intpot social preview</title>
  <desc id="desc">Minimal Intpot lockup. One typed definition. CLI, API, and MCP.</desc>
  <rect width="1200" height="630" fill="#090C11"/>
  <line x1="414" y1="128" x2="414" y2="502" stroke="#2A3039" stroke-width="2"/>
  <g transform="translate(80 160) scale(2.35)">
      <path d="M44 22h10v20c0 5-2.3 9.6-6.2 12.4C34.1 64.3 26 78.2 26 93c0 17 12.7 25 38 25s38-8 38-25c0-14.8-8.1-28.7-21.8-38.6C76.3 51.6 74 47 74 42V22h10" fill="none" stroke="#F2B84B" stroke-width="8" stroke-linecap="round" stroke-linejoin="round"/>
      <path d="M64 72v17M64 86l-18 16M64 86l18 16M64 86v20" fill="none" stroke="#F2B84B" stroke-width="6" stroke-linecap="round" stroke-linejoin="round"/>
      <circle cx="64" cy="70" r="5" fill="#F2B84B"/>
      <circle cx="45" cy="103" r="5" fill="#F2B84B"/>
      <circle cx="64" cy="106" r="5" fill="#F2B84B"/>
      <circle cx="83" cy="103" r="5" fill="#F2B84B"/>
  </g>
  <text x="478" y="190" fill="#F2B84B" font-family="Arial, Helvetica, sans-serif" font-size="18" font-weight="700" letter-spacing="4">MODEPOT / OPEN SOURCE</text>
  <text x="472" y="330" fill="#F4F2EA" font-family="Arial, Helvetica, sans-serif" font-size="108" font-weight="700" letter-spacing="-4">intpot</text>
  <text x="478" y="402" fill="#C4CAD3" font-family="Arial, Helvetica, sans-serif" font-size="28" font-weight="400">One typed definition.</text>
  <text x="478" y="443" fill="#C4CAD3" font-family="Arial, Helvetica, sans-serif" font-size="28" font-weight="400">CLI, API, and MCP.</text>
  <line x1="478" y1="492" x2="1100" y2="492" stroke="#F2B84B" stroke-width="4"/>
</svg>
